<svg xmlns="http://www.w3.org/2000/svg" width="256" height="256"><path fill-opacity=".216" d="M40 128v128h175V0H40v128M131.5 1.953c1.565.709 1.644.922.364.977-.899.038-2.857.704-4.35 1.478L124.8 5.817l5.574 1.157c3.066.636 7.669 2.27 10.228 3.631 4.219 2.243 4.812 2.33 6.357.932.937-.848 2.112-1.203 2.611-.789.5.414.116-.194-.853-1.351-2.487-2.97-10.49-7.047-15.217-7.753-2.8-.418-3.4-.325-2 .309m-10.75 4.709c.688.278 1.813.278 2.5 0 .688-.277.125-.504-1.25-.504s-1.937.227-1.25.504m-18.345 3.588L100.5 12.5l2.25-1.905c1.237-1.048 2.25-2.06 2.25-2.25 0-.8-.805-.209-2.595 1.905M112.2 9.2c-.66.66-1.2.819-1.2.354 0-.465-1.071.309-2.379 1.721-1.848 1.994-2.662 2.306-3.647 1.396-.976-.901-1.105-.883-.562.079 1.008 1.785-.418 3.858-1.477 2.145-.615-.996-1.346-.643-2.989 1.446-1.196 1.52-2.42 2.518-2.721 2.218-.3-.301.273-1.452 1.275-2.559 1.002-1.107 1.564-2.27 1.249-2.585-1.128-1.127-5.863 8.53-7.06 14.397-1.045 5.123-1.005 18.627.042 14.041.207-.906 1.252-1.877 2.323-2.157C96.42 39.339 97 38.32 97 36.275c0-4.657 2.969-13.477 5.816-17.275 3.002-4.005 6.171-6.759 10.597-9.208 1.698-.94 2.389-1.727 1.537-1.75-.852-.023-2.09.498-2.75 1.158m11.879 8.05c-.043 1.512-.549 2.75-1.124 2.75-2.435 0-5.955 4.963-5.955 8.396 0 4.147.677 4.691 4 3.215 1.704-.757 2.5-1.907 2.5-3.611 0-2.345.36-2.519 5.813-2.802 5.309-.275 5.785-.488 5.5-2.459-.195-1.344-1.255-2.376-2.813-2.739-1.58-.368-2.617-1.394-2.819-2.789-.262-1.81-.652-2.029-2.17-1.217-1.317.705-1.994.633-2.351-.252-.276-.683-.538-.004-.581 1.508M116.5 88.574c-6.969 1.639-13.5 3.869-13.5 4.609 0 .477 3.938.606 8.75.287 8.926-.591 23.187-.577 33.489.033 3.157.187 5.983-.053 6.28-.534 1.611-2.606-27.234-6.227-35.019-4.395" fill="#BDD747" fill-rule="evenodd"/><path fill-opacity=".09" d="M118.324 8.439c-15.192 4.751-23.282 19.929-19.22 36.06 1.682 6.679 9.684 15.204 15.896 16.935 1.79.499 2.094.417 1.07-.289-1.544-1.064-2.491-4.523-.982-3.591.502.31.912.171.912-.308 0-.48 1.575-1.491 3.5-2.246 3.75-1.472 4.628-3 1.723-3-.978 0-2.762-.689-3.965-1.532-1.879-1.316-2.028-1.878-1.062-4 1.274-2.796 1.731-2.914 5.183-1.341 3.794 1.729 7.621.372 7.621-2.701 0-2.109-.916-2.941-5.445-4.944-5.943-2.629-7.555-4.665-7.555-9.548 0-2.359.918-4.064 3.5-6.499 1.925-1.815 3.5-4.231 3.5-5.368 0-1.696.629-2.067 3.5-2.067 3.018 0 3.5.327 3.5 2.375 0 1.839.677 2.51 3 2.975 3.234.647 3.675 2.074 1.868 6.04-1.062 2.331-1.273 2.391-3.442.97-3.222-2.112-6.847-1.416-7.246 1.39-.308 2.173.58 2.664 4.559 2.52.682-.024 1.022.308.756.738s.133 1.019.886 1.308c1.584.608 1.681-2.36.119-3.627-.55-.446.41-.534 2.133-.196 2.822.554 3.24.311 4.198-2.439.586-1.68 1.34-3.054 1.676-3.054.336 0 .389.359.118.798-.271.439-.08 1.451.426 2.25.766 1.212.921 1.169.934-.259.017-1.905 3.746-5.789 5.558-5.789.641 0 2.356 1.104 3.811 2.452 3.274 3.034 3.319 2.574.227-2.324-6.573-10.412-19.672-15.311-31.257-11.689M162 35.818c0 1.001-.678 4.103-1.507 6.894-1.146 3.857-2.074 5.217-3.868 5.667-1.299.326-3.948 2.529-5.887 4.896-3.508 4.281-13.204 9.913-19.364 11.247-4.243.92-10.374 3.656-10.374 4.63 0 1.347-2.52.999-8.229-1.137C103.083 64.391 93.628 52.216 91.014 40l-.963-4.5.436 5.327c.924 11.27 9.553 23.5 20.312 28.787 5.08 2.497 6.791 2.804 15.701 2.82 9.019.016 10.524-.256 15.34-2.771 11.788-6.155 19.3-16.821 20.716-29.413.386-3.437.419-6.25.073-6.25s-.629.818-.629 1.818m-25.444 4.805c.78 4.882-1.027 7.39-8.061 11.183-3.368 1.817-5.099 3.427-5.315 4.944-.286 2.017.102 2.25 3.75 2.25 3.804 0 4.07-.185 4.07-2.839 0-2.011.686-3.153 2.351-3.911 1.294-.59 3.256-2.899 4.361-5.133 1.106-2.234 2.297-3.774 2.649-3.423.351.352.639-.111.639-1.027 0-1.032.858-1.706 2.25-1.769 1.644-.075 1.377-.31-.994-.873-1.784-.423-3.938-1.346-4.786-2.05-1.359-1.128-1.468-.814-.914 2.648M54.831 74.75c-5.254 6.218 7.339 11.598 34.696 14.822 2.509.296 4.727-.037 5.885-.884 1.767-1.292 1.717-1.459-1.027-3.393-4.884-3.443-10.931-6.178-20.565-9.301-10.622-3.442-16.79-3.847-18.989-1.244m130.669-.123c-13.954 4.15-28.335 11.213-27.054 13.286.303.489 1.917 1.366 3.586 1.948 1.67.583 2.821.71 2.558.285-.263-.426 5.009-.623 11.716-.437 7.747.214 13.106-.08 14.694-.808 9.259-4.24 10.921-5.849 10.968-10.616.054-5.396-6.061-6.754-16.468-3.658M43.169 94c-.191 10.926 1.84 24.005 4.694 30.216 2.541 5.531 2.692 2.711.237-4.426-1.631-4.741-3.219-15.92-4.445-31.29-.175-2.2-.394.275-.486 5.5m168.024-1.5c-.317 10.899-1.82 20.766-4.313 28.314-2.289 6.929-1.825 9.692.638 3.798 3.013-7.213 4.564-17.906 4.23-29.181-.284-9.616-.351-9.969-.555-2.931m-121.97 37.057C84.729 132.704 87.49 140 93.174 140c5.367 0 7.926-7.416 3.603-10.443C95.555 128.701 93.855 128 93 128s-2.555.701-3.777 1.557M158 130c-4.132 4.132-1.313 10 4.803 10 2.486 0 3.472-.631 4.702-3.009 1.744-3.373.876-6.181-2.462-7.968-2.848-1.524-4.815-1.251-7.043.977m-50.164 18.399c-4.977 3.8-9.893 12.138-9.757 16.547.062 2.011.416 1.599 1.665-1.941 1.012-2.867 3.714-6.623 7.463-10.373 6.892-6.891 7.248-9.287.629-4.233m6.977 1.284c.721.289 1.584.253 1.916-.079.332-.332-.258-.568-1.312-.525-1.165.048-1.402.285-.604.604m99.396 17.377c-.356 16.252-5.061 31.228-13.692 43.575L196 217.096v15.261c0 15.563-.204 16.509-4.209 19.53-1.39 1.049-3.768 1.054-12.75.029L168 250.655v-9.538l6.249-3.308c3.437-1.82 9.4-6.385 13.25-10.144 7.272-7.099 7.151-7.611-.499-2.112-6.719 4.83-15.613 9.065-23.784 11.324-6.453 1.785-10.447 2.023-35.004 2.091-24.39.067-28.638-.159-35.359-1.878-8.944-2.287-18.241-6.729-25.603-12.231-2.887-2.158-5.25-3.495-5.25-2.971 0 1.906 13.653 13.255 19.444 16.162 6.145 3.085 6.928 4.313 6.055 9.497l-.513 3.046-10.021 1.313c-17.083 2.238-18.225.888-17.853-21.111.249-14.737.238-14.82-2.354-17.551-3.632-3.827-10.223-16.575-12.276-23.744-.945-3.3-2.327-11.175-3.07-17.5l-1.352-11.5.456 11.5c.251 6.325 1.108 13.906 1.905 16.847 2.039 7.522 8.047 19.798 12.128 24.778L58 217.837v31.131l2.916 3.266 2.915 3.266 16.115.319 16.116.319 3.469-3.469c2.831-2.831 3.469-4.224 3.469-7.569V241h49l.002 2.75c.002 3.908 3.061 9.504 5.998 10.971 1.65.825 7.439 1.255 17.027 1.264 12.07.013 14.946-.273 17-1.689 4.712-3.247 4.908-4.038 4.941-19.93l.032-15.133 4.626-6.757c9.803-14.316 13.695-27.656 13.123-44.976l-.33-10-.21 9.56M113.2 162.2c-1.613 1.613-1.613 16.987 0 18.6 1.802 1.802 4.598 1.446 5.765-.734.569-1.064 1.035-5.044 1.035-8.845 0-5.425-.393-7.267-1.829-8.566-2.172-1.966-3.352-2.074-4.971-.455m23.447.069c-2.508 1.834-2.015 17.474.603 19.12 1.273.801 2.227.801 3.5 0 2.513-1.58 3.08-16.416.717-18.779-1.942-1.942-2.57-1.986-4.82-.341m-70.884 6.296c-4.834 2.623-4.98 10.104-.24 12.264 3.884 1.769 7.172 1.415 9.438-1.018 3.483-3.739 2.544-8.981-2.033-11.348-3.43-1.774-3.715-1.77-7.165.102m114.924 1.24c-2.943 3.072-3.265 4.832-1.565 8.563 1.762 3.867 9.304 5.035 12.145 1.882 3.134-3.478 3.101-6.644-.104-10.075-3.692-3.953-6.933-4.068-10.476-.37M106 191.757c0 1.356 6.922 6.686 11.5 8.855 9.193 4.354 20.801 2.114 27.827-5.371l2.827-3.012-5.325 2.636c-4.68 2.316-6.535 2.635-15.327 2.635-9.34 0-10.383-.209-15.752-3.154-3.162-1.734-5.75-2.9-5.75-2.589" fill="#BDD747" fill-rule="evenodd"/><path fill-opacity=".67" d="M95.706 54.899c.987 1.869 3.369 4.963 5.294 6.874 11.045 10.965 26.211 13.94 39.666 7.78 5.331-2.441 13.621-9.352 15.556-12.968.601-1.123-1.116.224-3.815 2.993-2.699 2.769-7.607 6.359-10.907 7.978-5.362 2.631-7.01 2.944-15.5 2.944-8.356 0-10.179-.333-15.142-2.77-5.205-2.557-10.722-7.556-15.152-13.73-1.724-2.404-1.724-2.37 0 .899m-7.051 75.93c-2.199 2.43-2.088 4.738.345 7.171 2.829 2.829 6.585 2.563 8.667-.615 1.522-2.322 1.552-2.902.274-5.17-1.385-2.456-4.163-4.3-3.854-2.559.477 2.69-.112 3.569-1.576 2.353-.819-.68-1.242-1.635-.941-2.122 1.011-1.636-1.241-.908-2.915.942m69.545-.629c-1.954 1.954-1.483 7.578.734 8.765 6.214 3.325 12.199-3.689 7.316-8.572-1.557-1.557-1.784-1.574-2.057-.157-.474 2.459-3.193 3.083-3.193.733 0-2.238-1.044-2.525-2.8-.769m-44.491 32.424c-.39.39-.709 4.404-.709 8.92 0 6.079.39 8.534 1.5 9.456 1.198.995 1.809.988 3.037-.03 1.209-1.004 1.475-3.105 1.25-9.873-.26-7.781-.481-8.625-2.328-8.889-1.123-.161-2.36.027-2.75.416m23.52.547c-.759.759-1.229 4.167-1.229 8.907 0 8.069 1.178 10.558 4.409 9.318 1.413-.542 1.62-2.009 1.377-9.755-.226-7.211-.604-9.179-1.807-9.409-.836-.16-2.074.263-2.75.939M50 206c.589 1.1 1.295 2 1.57 2 .275 0 .019-.9-.57-2s-1.295-2-1.57-2c-.275 0-.019.9.57 2m149.004 7.496c-1.29 1.373-2.093 2.749-1.784 3.058.309.308 1.542-.815 2.739-2.496 2.637-3.704 2.224-3.946-.955-.562m-143.398.656c1.042 1.459 2.094 2.459 2.338 2.222.245-.236-.607-1.43-1.894-2.652l-2.338-2.222 1.894 2.652m45.917 25.811c-.376.608 9.151.92 25.906.848 14.576-.063 26.265-.497 25.977-.963-.74-1.198-51.141-1.086-51.883.115m-1.45 9.9c-1.886 3.525-6.093 4.305-21.361 3.963-12.584-.283-14.787-.579-16.61-2.231-1.156-1.048-2.102-1.437-2.102-.865 0 .572 1.215 1.836 2.701 2.81 2.265 1.484 5.152 1.785 17.893 1.865 13.837.086 15.389-.082 17.392-1.894 2.228-2.014 4.502-5.511 3.584-5.511-.275 0-.948.838-1.497 1.863m54.103.076c.248.792 1.692 2.367 3.21 3.5 2.494 1.862 4.175 2.061 17.437 2.061 15.497 0 18.093-.606 20.305-4.738 1.029-1.925.768-1.852-2.135.591l-3.308 2.783-15.265-.318c-14.679-.306-15.369-.414-17.98-2.818-1.493-1.375-2.512-1.852-2.264-1.061" fill="#BDD747" fill-rule="evenodd"/></svg>